<svg width="30" height="30" viewBox="0 0 30 30" fill="none" xmlns="http://www.w3.org/2000/svg">
<path opacity="0.4" d="M20.4254 2.49976H9.58787C5.35037 2.49976 2.50037 5.47476 2.50037 9.89976V20.1123C2.50037 24.5248 5.35037 27.4998 9.58787 27.4998H20.4254C24.6629 27.4998 27.5004 24.5248 27.5004 20.1123V9.89976C27.5004 5.47476 24.6629 2.49976 20.4254 2.49976" fill="#59FFB7"/>
<path d="M13.5169 19.0603C13.2369 19.0603 12.9569 18.9541 12.7431 18.7403L9.77686 15.7741C9.34936 15.3466 9.34936 14.6541 9.77686 14.2278C10.2044 13.8003 10.8956 13.7991 11.3231 14.2266L13.5169 16.4203L18.6769 11.2603C19.1044 10.8328 19.7956 10.8328 20.2231 11.2603C20.6506 11.6878 20.6506 12.3803 20.2231 12.8078L14.2906 18.7403C14.0769 18.9541 13.7969 19.0603 13.5169 19.0603" fill="#59FFB7"/>
</svg>
