<svg width="30" height="30" viewBox="0 0 30 30" fill="none" xmlns="http://www.w3.org/2000/svg">
<path opacity="0.4" d="M20.425 2.49951H9.5875C5.35 2.49951 2.5 5.47451 2.5 9.89951V20.112C2.5 24.5245 5.35 27.4995 9.5875 27.4995H20.425C24.6625 27.4995 27.5 24.5245 27.5 20.112V9.89951C27.5 5.47451 24.6625 2.49951 20.425 2.49951Z" fill="white"/>
<path d="M19.4668 19.768C19.303 19.768 19.138 19.7255 18.9868 19.6367L14.0793 16.7092C13.7968 16.5392 13.623 16.233 13.623 15.903V9.59424C13.623 9.07674 14.043 8.65674 14.5605 8.65674C15.078 8.65674 15.498 9.07674 15.498 9.59424V15.3705L19.948 18.0242C20.3918 18.2905 20.538 18.8655 20.273 19.3105C20.0968 19.6042 19.7855 19.768 19.4668 19.768Z" fill="white"/>
</svg>
