<svg width="189" height="23" viewBox="0 0 189 23" fill="none" xmlns="http://www.w3.org/2000/svg">
<path d="M0 1.1084H2.81534L5.19755 4.8306L7.57976 1.1084H9.07676V10.6778H7.3632V5.4803L5.12987 9.26341H4.47341L2.16565 5.4803V10.6778H0V1.1084Z" fill="white"/>
<path d="M21 10.6778H17.3861L16.9394 8.64079H14.564L14.1376 10.6778H11.6945L14.1308 1.1084H18.3674L21 10.6778ZM15.7821 2.59728L14.855 7.05716H16.7905L15.9919 2.59728H15.7821Z" fill="white"/>
<path d="M8.21456 15.0662C8.02958 14.985 7.81301 14.9038 7.56487 14.8226C7.32123 14.7369 7.06406 14.6602 6.79336 14.5925C6.52716 14.5248 6.25646 14.4707 5.98124 14.4301C5.70602 14.385 5.44659 14.3624 5.20296 14.3624C4.77885 14.3624 4.44724 14.4166 4.20812 14.5248C3.96899 14.6331 3.84943 14.8158 3.84943 15.073C3.84943 15.1948 3.89004 15.3031 3.97125 15.3979C4.05697 15.4881 4.17653 15.5738 4.32993 15.655C4.48333 15.7317 4.66606 15.8084 4.87811 15.8851C5.09468 15.9573 5.3338 16.034 5.59548 16.1152L6.08952 16.2709C6.5046 16.3972 6.87682 16.5506 7.20618 16.7311C7.53554 16.907 7.81301 17.1168 8.0386 17.3605C8.2687 17.5996 8.44466 17.8748 8.56648 18.1861C8.6883 18.4974 8.7492 18.8516 8.7492 19.2487C8.7492 19.7134 8.67476 20.1375 8.52587 20.521C8.3815 20.9 8.15365 21.2248 7.84234 21.4955C7.53103 21.7662 7.13174 21.976 6.64447 22.1249C6.16171 22.2738 5.57969 22.3482 4.89841 22.3482C4.29384 22.3482 3.69152 22.2986 3.09145 22.1993C2.4959 22.1001 1.89358 21.9264 1.28449 21.6782V19.4449C1.86651 19.7427 2.43048 19.9615 2.9764 20.1014C3.52684 20.2367 4.06825 20.3044 4.60064 20.3044C5.03828 20.3044 5.35636 20.2345 5.55488 20.0946C5.75791 19.9547 5.85942 19.7607 5.85942 19.5126C5.85942 19.3637 5.82107 19.2374 5.74437 19.1336C5.67218 19.0253 5.55262 18.9261 5.38569 18.8358C5.22326 18.7456 5.00895 18.6554 4.74276 18.5651C4.47657 18.4704 4.15397 18.3643 3.77499 18.247C3.396 18.1342 3.04408 17.9921 2.71923 17.8207C2.3989 17.6492 2.12143 17.4439 1.88681 17.2048C1.6522 16.9612 1.46722 16.6792 1.33187 16.3589C1.20103 16.0385 1.1356 15.6731 1.1356 15.2625C1.1356 14.8384 1.21005 14.4504 1.35894 14.0985C1.50783 13.7466 1.73567 13.4465 2.04247 13.1984C2.34927 12.9457 2.73728 12.7495 3.2065 12.6096C3.68024 12.4697 4.24195 12.3998 4.89165 12.3998C5.14882 12.3998 5.42178 12.4111 5.71053 12.4336C5.99929 12.4562 6.29255 12.49 6.59033 12.5351C6.89261 12.5803 7.19039 12.6389 7.48365 12.7111C7.77692 12.7833 8.05439 12.869 8.31608 12.9683L8.21456 15.0662Z" fill="white"/>
<path d="M15.238 18.1049V22.152H12.2061V12.5825H15.238V16.7988L17.4037 12.5825H20.9431L18.2022 17.171L20.9431 22.152H17.4037L15.4546 17.6447L15.238 18.1049Z" fill="white"/>
<mask id="path-3-outside-1_210_570" maskUnits="userSpaceOnUse" x="24" y="0" width="165" height="23" fill="black">
<rect fill="white" x="24" width="165" height="23"/>
<path d="M25 1.38571H31.3023L39.1328 11.5286V1.38571H44.1105V21.5857H37.6482L29.9341 10.8429V21.5857H25V1.38571ZM49.0738 21.5857V1.38571H56.2348C58.0007 1.38571 59.5872 1.59048 60.9942 2C62.4012 2.4 63.5898 3.01429 64.5601 3.84286C65.5402 4.6619 66.2873 5.69524 66.8016 6.94286C67.3256 8.18095 67.5876 9.63809 67.5876 11.3143C67.5876 12.5905 67.4517 13.7333 67.18 14.7429C66.918 15.7429 66.5396 16.6238 66.0447 17.3857C65.5596 18.1476 64.9677 18.7952 64.269 19.3286C63.5801 19.8524 62.8136 20.2857 61.9694 20.6286C61.1252 20.9619 60.2131 21.2048 59.2331 21.3571C58.2627 21.5095 57.2439 21.5857 56.1765 21.5857H49.0738ZM55.5943 17.0143H56.031C56.7878 17.0143 57.4768 16.9476 58.0978 16.8143C58.7188 16.6714 59.2476 16.3952 59.6843 15.9857C60.1306 15.5762 60.4702 15 60.7031 14.2571C60.9457 13.5143 61.067 12.5333 61.067 11.3143C61.067 10.2095 60.9602 9.29048 60.7468 8.55714C60.5333 7.81429 60.2179 7.22381 59.8007 6.78571C59.3835 6.3381 58.8692 6.02381 58.2579 5.84286C57.6466 5.65238 56.9479 5.55714 56.162 5.55714H55.5943V17.0143ZM71.5028 1.38571H85.9412V5.12857H78.0234V9.4H85.0097V13.0571H78.0234V17.4714H85.9412V21.5857H71.5028V1.38571ZM90.7007 1.38571H97.2213V17.4714H104.208V21.5857H90.7007V1.38571ZM107.439 1.38571H114.367C114.969 1.38571 115.628 1.40952 116.346 1.45714C117.074 1.49524 117.802 1.58095 118.53 1.71429C119.257 1.8381 119.961 2.01905 120.64 2.25714C121.319 2.48571 121.921 2.79048 122.445 3.17143C122.979 3.54286 123.401 4.00476 123.711 4.55714C124.031 5.1 124.191 5.74762 124.191 6.5C124.191 6.94762 124.138 7.39524 124.031 7.84286C123.925 8.28095 123.731 8.68571 123.449 9.05714C123.177 9.42857 122.799 9.75238 122.314 10.0286C121.838 10.3048 121.227 10.5 120.48 10.6143C121.295 10.6619 122.018 10.8476 122.649 11.1714C123.289 11.4857 123.828 11.881 124.264 12.3571C124.701 12.8333 125.031 13.3619 125.254 13.9429C125.487 14.5143 125.603 15.081 125.603 15.6429C125.603 16.3952 125.448 17.1286 125.138 17.8429C124.827 18.5476 124.303 19.181 123.566 19.7429C122.838 20.2952 121.872 20.7429 120.669 21.0857C119.466 21.419 117.972 21.5857 116.186 21.5857H107.439V1.38571ZM113.959 17.9286H116.594C117.428 17.9286 118.049 17.719 118.457 17.3C118.874 16.8714 119.083 16.319 119.083 15.6429C119.083 15.2429 119.01 14.9 118.864 14.6143C118.729 14.3286 118.471 14.0952 118.093 13.9143C117.715 13.7238 117.191 13.5857 116.521 13.5C115.861 13.4048 115.007 13.3571 113.959 13.3571V17.9286ZM115.997 9.7C116.453 9.7 116.87 9.63809 117.249 9.51429C117.627 9.38095 117.952 9.20952 118.224 9C118.496 8.79048 118.704 8.54762 118.85 8.27143C119.005 7.99524 119.083 7.70952 119.083 7.41429C119.083 6.95714 118.991 6.58095 118.806 6.28571C118.622 5.99048 118.326 5.75714 117.918 5.58571C117.511 5.41429 116.982 5.29524 116.332 5.22857C115.682 5.1619 114.891 5.12857 113.959 5.12857V9.7H115.997ZM129.999 1.38571H139.256C140.721 1.38571 142.011 1.57619 143.127 1.95714C144.243 2.32857 145.17 2.82381 145.907 3.44286C146.654 4.05238 147.217 4.74762 147.596 5.52857C147.974 6.3 148.163 7.08095 148.163 7.87143C148.163 8.49048 148.1 9.10476 147.974 9.71429C147.848 10.3143 147.625 10.8857 147.305 11.4286C146.984 11.9619 146.543 12.4476 145.98 12.8857C145.427 13.3143 144.719 13.6619 143.855 13.9286C143.981 14.3286 144.195 14.8238 144.495 15.4143C144.796 16.0048 145.146 16.6429 145.543 17.3286C145.941 18.0143 146.368 18.7238 146.824 19.4571C147.28 20.1905 147.727 20.9 148.163 21.5857H140.711C140.294 20.6619 139.867 19.6286 139.43 18.4857C138.994 17.3333 138.644 16.081 138.382 14.7286H136.519V21.5857H129.999V1.38571ZM137.626 11.5286C138.363 11.5286 138.984 11.4333 139.489 11.2429C140.003 11.0524 140.42 10.8048 140.74 10.5C141.061 10.1952 141.289 9.85238 141.424 9.47143C141.57 9.09048 141.643 8.70952 141.643 8.32857C141.643 7.57619 141.536 6.9619 141.323 6.48571C141.109 6.00952 140.818 5.6381 140.449 5.37143C140.081 5.09524 139.654 4.90952 139.168 4.81429C138.683 4.71905 138.164 4.67143 137.611 4.67143H136.519V11.5286H137.626ZM160.288 22C159.016 22 157.881 21.8619 156.882 21.5857C155.882 21.319 154.999 20.9476 154.233 20.4714C153.476 19.9857 152.831 19.4143 152.297 18.7571C151.773 18.0905 151.341 17.3714 151.002 16.6C150.672 15.819 150.429 15 150.274 14.1429C150.128 13.2857 150.055 12.4143 150.055 11.5286C150.055 10.6524 150.148 9.78571 150.332 8.92857C150.516 8.0619 150.793 7.2381 151.162 6.45714C151.53 5.67619 151.996 4.95238 152.559 4.28571C153.122 3.61905 153.781 3.04286 154.538 2.55714C155.295 2.07143 156.149 1.69048 157.1 1.41429C158.061 1.1381 159.123 1 160.288 1C161.452 1 162.51 1.1381 163.46 1.41429C164.421 1.69048 165.28 2.07143 166.037 2.55714C166.803 3.04286 167.468 3.61905 168.031 4.28571C168.594 4.95238 169.059 5.67619 169.428 6.45714C169.806 7.2381 170.088 8.0619 170.272 8.92857C170.457 9.78571 170.549 10.6524 170.549 11.5286C170.549 12.4143 170.471 13.2857 170.316 14.1429C170.161 15 169.913 15.819 169.574 16.6C169.244 17.3714 168.812 18.0905 168.278 18.7571C167.744 19.4143 167.099 19.9857 166.342 20.4714C165.585 20.9476 164.702 21.319 163.693 21.5857C162.694 21.8619 161.559 22 160.288 22ZM156.576 11.5286C156.576 12.6714 156.659 13.6476 156.823 14.4571C156.998 15.2667 157.241 15.9286 157.551 16.4429C157.871 16.9571 158.26 17.3333 158.716 17.5714C159.181 17.8095 159.705 17.9286 160.288 17.9286C160.87 17.9286 161.389 17.8095 161.845 17.5714C162.311 17.3333 162.704 16.9571 163.024 16.4429C163.354 15.9286 163.601 15.2667 163.766 14.4571C163.941 13.6476 164.028 12.6714 164.028 11.5286C164.028 10.3857 163.941 9.40952 163.766 8.6C163.601 7.78095 163.354 7.11429 163.024 6.6C162.704 6.07619 162.311 5.69048 161.845 5.44286C161.389 5.19524 160.87 5.07143 160.288 5.07143C159.705 5.07143 159.181 5.19524 158.716 5.44286C158.26 5.69048 157.871 6.07619 157.551 6.6C157.241 7.11429 156.998 7.78095 156.823 8.6C156.659 9.40952 156.576 10.3857 156.576 11.5286ZM176.72 21.5857V6.04286H172.062V1.38571H188V6.04286H183.241V21.5857H176.72Z"/>
</mask>
<path d="M25 1.38571H31.3023L39.1328 11.5286V1.38571H44.1105V21.5857H37.6482L29.9341 10.8429V21.5857H25V1.38571ZM49.0738 21.5857V1.38571H56.2348C58.0007 1.38571 59.5872 1.59048 60.9942 2C62.4012 2.4 63.5898 3.01429 64.5601 3.84286C65.5402 4.6619 66.2873 5.69524 66.8016 6.94286C67.3256 8.18095 67.5876 9.63809 67.5876 11.3143C67.5876 12.5905 67.4517 13.7333 67.18 14.7429C66.918 15.7429 66.5396 16.6238 66.0447 17.3857C65.5596 18.1476 64.9677 18.7952 64.269 19.3286C63.5801 19.8524 62.8136 20.2857 61.9694 20.6286C61.1252 20.9619 60.2131 21.2048 59.2331 21.3571C58.2627 21.5095 57.2439 21.5857 56.1765 21.5857H49.0738ZM55.5943 17.0143H56.031C56.7878 17.0143 57.4768 16.9476 58.0978 16.8143C58.7188 16.6714 59.2476 16.3952 59.6843 15.9857C60.1306 15.5762 60.4702 15 60.7031 14.2571C60.9457 13.5143 61.067 12.5333 61.067 11.3143C61.067 10.2095 60.9602 9.29048 60.7468 8.55714C60.5333 7.81429 60.2179 7.22381 59.8007 6.78571C59.3835 6.3381 58.8692 6.02381 58.2579 5.84286C57.6466 5.65238 56.9479 5.55714 56.162 5.55714H55.5943V17.0143ZM71.5028 1.38571H85.9412V5.12857H78.0234V9.4H85.0097V13.0571H78.0234V17.4714H85.9412V21.5857H71.5028V1.38571ZM90.7007 1.38571H97.2213V17.4714H104.208V21.5857H90.7007V1.38571ZM107.439 1.38571H114.367C114.969 1.38571 115.628 1.40952 116.346 1.45714C117.074 1.49524 117.802 1.58095 118.53 1.71429C119.257 1.8381 119.961 2.01905 120.64 2.25714C121.319 2.48571 121.921 2.79048 122.445 3.17143C122.979 3.54286 123.401 4.00476 123.711 4.55714C124.031 5.1 124.191 5.74762 124.191 6.5C124.191 6.94762 124.138 7.39524 124.031 7.84286C123.925 8.28095 123.731 8.68571 123.449 9.05714C123.177 9.42857 122.799 9.75238 122.314 10.0286C121.838 10.3048 121.227 10.5 120.48 10.6143C121.295 10.6619 122.018 10.8476 122.649 11.1714C123.289 11.4857 123.828 11.881 124.264 12.3571C124.701 12.8333 125.031 13.3619 125.254 13.9429C125.487 14.5143 125.603 15.081 125.603 15.6429C125.603 16.3952 125.448 17.1286 125.138 17.8429C124.827 18.5476 124.303 19.181 123.566 19.7429C122.838 20.2952 121.872 20.7429 120.669 21.0857C119.466 21.419 117.972 21.5857 116.186 21.5857H107.439V1.38571ZM113.959 17.9286H116.594C117.428 17.9286 118.049 17.719 118.457 17.3C118.874 16.8714 119.083 16.319 119.083 15.6429C119.083 15.2429 119.01 14.9 118.864 14.6143C118.729 14.3286 118.471 14.0952 118.093 13.9143C117.715 13.7238 117.191 13.5857 116.521 13.5C115.861 13.4048 115.007 13.3571 113.959 13.3571V17.9286ZM115.997 9.7C116.453 9.7 116.87 9.63809 117.249 9.51429C117.627 9.38095 117.952 9.20952 118.224 9C118.496 8.79048 118.704 8.54762 118.85 8.27143C119.005 7.99524 119.083 7.70952 119.083 7.41429C119.083 6.95714 118.991 6.58095 118.806 6.28571C118.622 5.99048 118.326 5.75714 117.918 5.58571C117.511 5.41429 116.982 5.29524 116.332 5.22857C115.682 5.1619 114.891 5.12857 113.959 5.12857V9.7H115.997ZM129.999 1.38571H139.256C140.721 1.38571 142.011 1.57619 143.127 1.95714C144.243 2.32857 145.17 2.82381 145.907 3.44286C146.654 4.05238 147.217 4.74762 147.596 5.52857C147.974 6.3 148.163 7.08095 148.163 7.87143C148.163 8.49048 148.1 9.10476 147.974 9.71429C147.848 10.3143 147.625 10.8857 147.305 11.4286C146.984 11.9619 146.543 12.4476 145.98 12.8857C145.427 13.3143 144.719 13.6619 143.855 13.9286C143.981 14.3286 144.195 14.8238 144.495 15.4143C144.796 16.0048 145.146 16.6429 145.543 17.3286C145.941 18.0143 146.368 18.7238 146.824 19.4571C147.28 20.1905 147.727 20.9 148.163 21.5857H140.711C140.294 20.6619 139.867 19.6286 139.43 18.4857C138.994 17.3333 138.644 16.081 138.382 14.7286H136.519V21.5857H129.999V1.38571ZM137.626 11.5286C138.363 11.5286 138.984 11.4333 139.489 11.2429C140.003 11.0524 140.42 10.8048 140.74 10.5C141.061 10.1952 141.289 9.85238 141.424 9.47143C141.57 9.09048 141.643 8.70952 141.643 8.32857C141.643 7.57619 141.536 6.9619 141.323 6.48571C141.109 6.00952 140.818 5.6381 140.449 5.37143C140.081 5.09524 139.654 4.90952 139.168 4.81429C138.683 4.71905 138.164 4.67143 137.611 4.67143H136.519V11.5286H137.626ZM160.288 22C159.016 22 157.881 21.8619 156.882 21.5857C155.882 21.319 154.999 20.9476 154.233 20.4714C153.476 19.9857 152.831 19.4143 152.297 18.7571C151.773 18.0905 151.341 17.3714 151.002 16.6C150.672 15.819 150.429 15 150.274 14.1429C150.128 13.2857 150.055 12.4143 150.055 11.5286C150.055 10.6524 150.148 9.78571 150.332 8.92857C150.516 8.0619 150.793 7.2381 151.162 6.45714C151.53 5.67619 151.996 4.95238 152.559 4.28571C153.122 3.61905 153.781 3.04286 154.538 2.55714C155.295 2.07143 156.149 1.69048 157.1 1.41429C158.061 1.1381 159.123 1 160.288 1C161.452 1 162.51 1.1381 163.46 1.41429C164.421 1.69048 165.28 2.07143 166.037 2.55714C166.803 3.04286 167.468 3.61905 168.031 4.28571C168.594 4.95238 169.059 5.67619 169.428 6.45714C169.806 7.2381 170.088 8.0619 170.272 8.92857C170.457 9.78571 170.549 10.6524 170.549 11.5286C170.549 12.4143 170.471 13.2857 170.316 14.1429C170.161 15 169.913 15.819 169.574 16.6C169.244 17.3714 168.812 18.0905 168.278 18.7571C167.744 19.4143 167.099 19.9857 166.342 20.4714C165.585 20.9476 164.702 21.319 163.693 21.5857C162.694 21.8619 161.559 22 160.288 22ZM156.576 11.5286C156.576 12.6714 156.659 13.6476 156.823 14.4571C156.998 15.2667 157.241 15.9286 157.551 16.4429C157.871 16.9571 158.26 17.3333 158.716 17.5714C159.181 17.8095 159.705 17.9286 160.288 17.9286C160.87 17.9286 161.389 17.8095 161.845 17.5714C162.311 17.3333 162.704 16.9571 163.024 16.4429C163.354 15.9286 163.601 15.2667 163.766 14.4571C163.941 13.6476 164.028 12.6714 164.028 11.5286C164.028 10.3857 163.941 9.40952 163.766 8.6C163.601 7.78095 163.354 7.11429 163.024 6.6C162.704 6.07619 162.311 5.69048 161.845 5.44286C161.389 5.19524 160.87 5.07143 160.288 5.07143C159.705 5.07143 159.181 5.19524 158.716 5.44286C158.26 5.69048 157.871 6.07619 157.551 6.6C157.241 7.11429 156.998 7.78095 156.823 8.6C156.659 9.40952 156.576 10.3857 156.576 11.5286ZM176.72 21.5857V6.04286H172.062V1.38571H188V6.04286H183.241V21.5857H176.72Z" stroke="#59FFB7" stroke-width="2" mask="url(#path-3-outside-1_210_570)"/>
</svg>
