<svg width="8" height="77" viewBox="0 0 8 77" fill="none" xmlns="http://www.w3.org/2000/svg">
<path d="M3.64645 76.3545C3.84171 76.5498 4.15829 76.5498 4.35355 76.3545L7.53553 73.1725C7.7308 72.9773 7.7308 72.6607 7.53553 72.4654C7.34027 72.2702 7.02369 72.2702 6.82843 72.4654L4 75.2939L1.17157 72.4654C0.976311 72.2702 0.659728 72.2702 0.464466 72.4654C0.269204 72.6607 0.269204 72.9773 0.464466 73.1725L3.64645 76.3545ZM4.5 76.001L4.5 71.626L3.5 71.626L3.5 76.001L4.5 76.001ZM4.5 62.876L4.5 54.126L3.5 54.126L3.5 62.876L4.5 62.876ZM4.5 45.376L4.5 36.626L3.5 36.626L3.5 45.376L4.5 45.376ZM4.5 27.876L4.5 19.126L3.5 19.126L3.5 27.876L4.5 27.876ZM4.5 10.376L4.5 6.00098L3.5 6.00098L3.5 10.376L4.5 10.376Z" fill="#FF4C24"/>
<rect x="1" y="0.000976562" width="6" height="6" fill="#FF4C24"/>
</svg>
